<svg xmlns="http://www.w3.org/2000/svg" viewBox="0 0 1200 600" fill="none">
  <defs>
    <linearGradient id="glow1" x1="0%" y1="0%" x2="100%" y2="100%">
      <stop offset="0%" stop-color="#C9A84C" stop-opacity="0.15"/>
      <stop offset="100%" stop-color="#C9A84C" stop-opacity="0"/>
    </linearGradient>
    <linearGradient id="glow2" x1="100%" y1="0%" x2="0%" y2="100%">
      <stop offset="0%" stop-color="#5A729F" stop-opacity="0.2"/>
      <stop offset="100%" stop-color="#5A729F" stop-opacity="0"/>
    </linearGradient>
  </defs>
  <circle cx="900" cy="150" r="300" fill="url(#glow1)"/>
  <circle cx="200" cy="450" r="250" fill="url(#glow2)"/>
  <g stroke="#ffffff" stroke-opacity="0.06" stroke-width="1" fill="none">
    <rect x="50" y="80" width="180" height="120" rx="12"/>
    <rect x="60" y="90" width="160" height="20" rx="4"/>
    <rect x="60" y="120" width="120" height="12" rx="3"/>
    <rect x="60" y="140" width="140" height="12" rx="3"/>
    <rect x="60" y="160" width="80" height="12" rx="3"/>
    <rect x="60" y="180" width="60" height="10" rx="3"/>
  </g>
  <g stroke="#ffffff" stroke-opacity="0.05" stroke-width="1" fill="none">
    <rect x="950" y="350" width="200" height="180" rx="12"/>
    <circle cx="1050" cy="400" r="25"/>
    <rect x="980" y="440" width="140" height="10" rx="3"/>
    <rect x="1000" y="460" width="100" height="10" rx="3"/>
    <rect x="970" y="490" width="80" height="24" rx="6"/>
    <rect x="1060" y="490" width="80" height="24" rx="6"/>
  </g>
  <g stroke="#C9A84C" stroke-opacity="0.12" stroke-width="1" fill="none">
    <path d="M400 500 L450 480 L500 490 L550 460 L600 470 L650 440 L700 420 L750 430 L800 390"/>
    <rect x="400" y="380" width="420" height="140" rx="8"/>
    <line x1="400" y1="420" x2="820" y2="420" stroke-dasharray="4,4"/>
    <line x1="400" y1="460" x2="820" y2="460" stroke-dasharray="4,4"/>
  </g>
  <g stroke="#ffffff" stroke-opacity="0.04" stroke-width="0.5">
    <line x1="0" y1="100" x2="1200" y2="100"/>
    <line x1="0" y1="200" x2="1200" y2="200"/>
    <line x1="0" y1="300" x2="1200" y2="300"/>
    <line x1="0" y1="400" x2="1200" y2="400"/>
    <line x1="0" y1="500" x2="1200" y2="500"/>
    <line x1="200" y1="0" x2="200" y2="600"/>
    <line x1="400" y1="0" x2="400" y2="600"/>
    <line x1="600" y1="0" x2="600" y2="600"/>
    <line x1="800" y1="0" x2="800" y2="600"/>
    <line x1="1000" y1="0" x2="1000" y2="600"/>
  </g>
</svg>
