<svg xmlns="http://www.w3.org/2000/svg" viewBox="0 0 130 131">
  <rect width="130" height="131" rx="14" fill="#0f2a2e"/>
  <path fill="#2cd7f2" d="M0,0H81.81c7.35,0,14.65.58,21.7,2.81,6.37,2,12,5.17,16,10.79,4.52,6.39,5.64,13.64,5,21.19a36.51,36.51,0,0,1-2,9.15c-2.53,7.22-7.92,11.67-14.93,14.3a8.22,8.22,0,0,1-2.81.34q-51.23,0-102.45,0c-.74,0-1.48-.09-2.38-.15Z"/>
  <path fill="#2cd7f2" d="M40.13,65.28H42.9c20.08,0,40.16.14,60.23,0a26.23,26.23,0,0,1,14.77,4.4c9.06,5.77,12.92,14.26,12.85,24.61-2.25-.15-4.31-.38-6.36-.42-3.62-.06-7.24,0-10.85,0a14.45,14.45,0,0,0-2.28.09c-2.2.33-3,1.17-3,3.39,0,4.28,0,8.57,0,12.85v3.4a29.43,29.43,0,0,1-7.39.06c-.05-1-.15-1.9-.15-2.81,0-7.42,0-14.84,0-22.27,0-3.58-.77-4.45-4.25-4.49C91.66,84,86.9,84,82.15,84c-3.4,0-4.16.89-4.17,4.26q0,11.13,0,22.27v3h-7.6V110.4q0-15.84,0-31.68c0-3.71-.82-4.58-4.46-4.61-4.57,0-9.13,0-13.7,0a9.76,9.76,0,0,0-1.71.09c-2,.37-2.77,1.26-2.82,3.28s0,4.19,0,6.28q0,13.27,0,26.55v3.27H40.13Z"/>
  <path fill="#2cd7f2" d="M0,130.13V65.64H17v52.93H121.39c-.11,1.51-1.08,2-1.83,2.62a35.82,35.82,0,0,1-12.89,6.53A63.47,63.47,0,0,1,89.5,130.1q-14.7,0-29.39,0H0Z"/>
</svg>
