<?xml version="1.0" encoding="UTF-8"?>
<svg xmlns="http://www.w3.org/2000/svg" viewBox="0 0 640.24 130.13">
  <defs>
    <style>.cls-1{fill:#2cd7f2;}.cls-2{fill:#0f2a2e;}.cls-3{fill:#152f33;}.cls-4{fill:#fff;}</style>
  </defs>
  <g>
    <path class="cls-1" d="M0,0H81.81c7.35,0,14.65.58,21.7,2.81,6.37,2,12,5.17,16,10.79,4.52,6.39,5.64,13.64,5,21.19a36.51,36.51,0,0,1-2,9.15c-2.53,7.22-7.92,11.67-14.93,14.3a8.22,8.22,0,0,1-2.81.34q-51.23,0-102.45,0c-.74,0-1.48-.09-2.38-.15Z"/>
    <path class="cls-1" d="M40.13,65.28H42.9c20.08,0,40.16.14,60.23,0a26.23,26.23,0,0,1,14.77,4.4c9.06,5.77,12.92,14.26,12.85,24.61-2.25-.15-4.31-.38-6.36-.42-3.62-.06-7.24,0-10.85,0a14.45,14.45,0,0,0-2.28.09c-2.2.33-3,1.17-3,3.39,0,4.28,0,8.57,0,12.85v3.4a29.43,29.43,0,0,1-7.39.06c-.05-1-.15-1.9-.15-2.81,0-7.42,0-14.84,0-22.27,0-3.58-.77-4.45-4.25-4.49C91.66,84,86.9,84,82.15,84c-3.4,0-4.16.89-4.17,4.26q0,11.13,0,22.27v3h-7.6V110.4q0-15.84,0-31.68c0-3.71-.82-4.58-4.46-4.61-4.57,0-9.13,0-13.7,0a9.76,9.76,0,0,0-1.71.09c-2,.37-2.77,1.26-2.82,3.28s0,4.19,0,6.28q0,13.27,0,26.55v3.27H40.13Z"/>
    <path class="cls-1" d="M0,130.13V65.64H17v52.93H121.39c-.11,1.51-1.08,2-1.83,2.62a35.82,35.82,0,0,1-12.89,6.53A63.47,63.47,0,0,1,89.5,130.1q-14.7,0-29.39,0H0Z"/>
    <path class="cls-2" d="M144.18,60.44V27.05c.62-.07,1.15-.18,1.68-.19,6,0,12-.1,18,.05a21,21,0,0,1,6.4,1.09c3.2,1.11,4.66,3.83,4.54,7.45S173.09,41,169.7,42.2c-.61.2-1.22.43-2.18.77,1.27.36,2.17.58,3,.86,3.54,1.15,5.48,3.44,5.63,7.05s-1,6.61-4.38,8.3a9.77,9.77,0,0,1-4,1.2C160,60.49,152.22,60.44,144.18,60.44Zm7.56-6.75c4.74,0,9.36.11,14-.06,2.09-.07,2.86-1.29,2.85-3.48s-.82-3.38-2.89-3.45c-4.6-.14-9.21,0-13.93,0Zm0-13.46c4.31,0,8.48.11,12.64,0,2.06-.08,2.85-1.22,2.84-3.19s-.84-3.14-2.86-3.22c-4.16-.16-8.33,0-12.62,0Z"/>
    <path class="cls-2" d="M632.65,48.33H621.59v-5.4h18.65V60.45h-6.72c-.08-2-.17-3.88-.26-5.84-.36.12-.6.12-.65.22-2.93,6-8.76,7-15.25,5.92s-10.47-5-12.18-11.34a21.07,21.07,0,0,1-.38-9.34c1.11-6.1,4.6-10.37,10.52-12.39a24.48,24.48,0,0,1,16.77.25c5.41,2,8.11,6,8,11.89h-7.77c-1.55-4.88-2.9-6-8-6.14a29.52,29.52,0,0,0-6.22.51,6,6,0,0,0-5.25,5.31,33.05,33.05,0,0,0,0,8.49,6,6,0,0,0,5.75,5.47,53,53,0,0,0,9.92-.1C631.42,53.06,632.31,51.72,632.65,48.33Z"/>
    <path class="cls-2" d="M492.47,60.46h-7.4V26.86c2.4,0,4.66-.13,6.9.07a3.71,3.71,0,0,1,2.16,1.55c4.85,6.57,9.64,13.2,14.44,19.81.31.43.63.86,1.34,1.8v-23h7.29V60.61c-2.3,0-4.55.1-6.8-.06a3.27,3.27,0,0,1-2-1.26c-4.67-6.12-9.27-12.29-13.9-18.44-.48-.65-1-1.3-1.72-2.27-1,2.67-.15,5-.27,7.26-.13,2.46,0,4.94,0,7.42Z"/>
    <path class="cls-2" d="M600.31,60.6c-2.4,0-4.76.11-7.1-.07-.68-.05-1.43-.84-1.9-1.47-4.81-6.38-9.57-12.79-14.35-19.19-.32-.43-.66-.85-1.37-1.75V60.49h-7.35V26.86c2.41,0,4.68-.13,6.93.08a3.72,3.72,0,0,1,2.12,1.58c4.85,6.59,9.63,13.22,14.43,19.84.32.43.67.85,1.34,1.69v-23h7.25Z"/>
    <path class="cls-2" d="M426.55,61.11a34.29,34.29,0,0,1-3.82-.34c-11.5-2.13-14.9-11.47-13.7-20,1.17-8.27,6.66-13.42,15.06-14.17a28.39,28.39,0,0,1,7.65.26c7.6,1.38,12.43,6.68,13.16,14.41a24.17,24.17,0,0,1-.4,7.35c-1.53,7-7.15,11.55-14.66,12.29C428.9,61,427.94,61.05,426.55,61.11Zm-9.86-17.72c.12,1.32.13,2.66.38,4,.75,3.93,2.66,5.83,6.65,6.23a30.31,30.31,0,0,0,7.06-.1,6.4,6.4,0,0,0,5.93-6,31.84,31.84,0,0,0,0-7.62,6.34,6.34,0,0,0-5.48-5.76,24.86,24.86,0,0,0-4.79-.48C419.51,33.68,416.84,36.42,416.69,43.39Z"/>
    <path class="cls-2" d="M270.79,33.73H251.33V27.06h30.53c0,2,.16,4,0,6.06-.06.7-.88,1.4-1.47,2q-8.31,8-16.68,16c-.68.66-1.41,1.26-2.27,2,1.83,1.2,3.56.58,5.18.68s3.42,0,5.14,0h10.36v6.58H250.75a52.15,52.15,0,0,1,.07-5.87,4.62,4.62,0,0,1,1.54-2.26c5.38-5.39,10.8-10.73,16.2-16.1C269.2,35.57,269.77,34.87,270.79,33.73Z"/>
    <path class="cls-2" d="M359.13,46.69h8.07A11.47,11.47,0,0,1,363,57.08a16.67,16.67,0,0,1-4.94,2.76,22.79,22.79,0,0,1-14.3.37c-6.64-1.9-10.94-7.31-11.4-14.46a24.8,24.8,0,0,1,.61-7.34,14.61,14.61,0,0,1,10.25-10.93,23,23,0,0,1,15.39.35c5.82,2.15,8.78,6.66,8.52,12.9h-7.85c-.05-.08-.22-.23-.22-.39-.25-4.68-2.52-6.29-7-6.62a25.5,25.5,0,0,0-6.22.44,6.23,6.23,0,0,0-5.16,5.08,18.89,18.89,0,0,0,0,9,6.37,6.37,0,0,0,5.71,5.21,30.49,30.49,0,0,0,7.08.07c3.46-.38,4.89-2,5.44-5.54C359,47.64,359.07,47.27,359.13,46.69Z"/>
    <path class="cls-2" d="M405.4,40.86h-7.78c-.12-.24-.27-.41-.27-.58-.18-4.87-3-6.37-7.29-6.59a25.68,25.68,0,0,0-5.93.48A6.18,6.18,0,0,0,379.07,39a18.56,18.56,0,0,0,0,9.59A6.35,6.35,0,0,0,384,53.34a18.32,18.32,0,0,0,8.77.1,5.47,5.47,0,0,0,4.44-4.64c.12-.64.17-1.29.26-2.06h8.09a11.94,11.94,0,0,1-5.12,11.11c-6.18,4.46-17.33,4.35-23.47-.17a15.09,15.09,0,0,1-6.19-11.42,25.56,25.56,0,0,1,.64-8.18A14.31,14.31,0,0,1,381,27.66a23.06,23.06,0,0,1,16.2.29C402.88,30.12,405.79,34.76,405.4,40.86Z"/>
    <path class="cls-2" d="M331.53,60.51H323c-1-2.38-2.11-4.78-3.24-7.36-5.28,0-10.49,0-15.71.06-.54,0-1.27.73-1.56,1.3-1,1.94-1.79,4-2.67,6h-8.36L306,26.94h10.73C321.6,37.93,326.48,49,331.53,60.51ZM316.77,46.23c-1.84-4.41-3.51-8.41-5.4-12.91-1.9,4.56-3.59,8.63-5.38,12.91Z"/>
    <path class="cls-2" d="M237.81,43.5l11.48,17.1c-3,0-5.61.11-8.21-.07-.64,0-1.37-.88-1.82-1.53q-3.31-4.81-6.48-9.73a3,3,0,0,0-3-1.66c-2.08.12-4.17,0-6.51,0V60.42h-7.43V27H223V40.31c2.64,0,5-.05,7.33,0,1.19,0,1.64-.76,2.16-1.55,2.27-3.41,4.59-6.77,6.78-10.22a3.19,3.19,0,0,1,3.24-1.73c2.08.14,4.18,0,6.74,0-1.8,3.12-3.87,5.69-5.71,8.39S239.78,40.69,237.81,43.5Z"/>
    <path class="cls-2" d="M473.11,27h7.14a2.94,2.94,0,0,1,.32.87c0,6.37.14,12.74,0,19.11-.2,7.89-4.3,12.53-12.1,13.82a25.43,25.43,0,0,1-10.77-.42c-5.74-1.53-9.6-5.62-9.88-11.51-.35-7.19-.08-14.42-.08-21.81h7.37v2.84c0,5.13,0,10.27,0,15.41a19.09,19.09,0,0,0,.18,3.12c.52,3,2,4.68,5,5a34.51,34.51,0,0,0,7.67,0c3-.36,4.45-2,4.88-5.09a30.49,30.49,0,0,0,.25-4.27C473.13,38.45,473.11,32.85,473.11,27Z"/>
    <path class="cls-2" d="M178.55,27h7.17v2.9c0,5.13,0,10.27,0,15.41,0,6.42,1.9,8.29,8.35,8.43a25.24,25.24,0,0,0,4.26-.22c3.14-.47,4.72-2.05,5.23-5.17a19.14,19.14,0,0,0,.17-3.13c0-5.32,0-10.65,0-16,0-.66.06-1.31.1-2.16h7.23c0,.66.14,1.3.14,1.93,0,5.8,0,11.61,0,17.41-.06,8.31-4.23,13.22-12.39,14.43a25.8,25.8,0,0,1-10.2-.41c-5.85-1.48-9.45-5.32-10.11-11.29-.35-3.2-.26-6.45-.29-9.68,0-3.9,0-7.8,0-11.7A2.84,2.84,0,0,1,178.55,27Z"/>
    <path class="cls-2" d="M533,33.65H520.67v-6.6h32.09v6.52H540.67V60.4H533Z"/>
    <path class="cls-3" d="M186.12,81.46V98.85c2.07-1.81,2.37-4,3.3-5.84s1.71-3.81,2.57-5.72,1.79-4,2.7-6H199l7.71,17.28h-3.78l-1.91-4h-8.39c-.6,1.24-1.25,2.58-1.92,4h-8V91.72h-9.14v6.92h-3.38V81.39h3.28v6.8h9.07V81.46Zm8.06,9.59h5.3c-.93-2.13-1.74-4-2.7-6.15C195.81,87.19,195,89.05,194.18,91.05Z"/>
    <path class="cls-3" d="M563.74,60.47h-7.26V27h7.26Z"/>
    <path class="cls-3" d="M487.58,93V81.4l3.35-.19V98.55c-2.24.76-3.69-.08-5-2a102.4,102.4,0,0,0-7.18-9c-.34,3.66-.23,7.29-.3,11h-3.3V81.55c2.17-.78,3.62-.26,4.9,1.64,1.91,2.83,4.1,5.46,6.18,8.18C486.54,91.77,486.87,92.16,487.58,93Z"/>
    <path class="cls-3" d="M433.84,98.6c-2.34.69-3.79-.21-5.09-2.08-2.17-3.13-4.6-6.06-7.28-9.55-.21,2.26-.09,4.08-.11,5.9s0,3.77,0,5.78h-3.3V81.51c2.2-.75,3.62-.14,4.91,1.72,2.21,3.2,4.67,6.21,7.24,9.58.63-2.08.27-3.94.34-5.75s0-3.6,0-5.69l3.29-.15Z"/>
    <path class="cls-2" d="M247.49,84.41v3.81h10.12c.09,1.14.15,2,.24,3.24H247.62v4.08H258l.17,3.1H244.24V81.32l6.6-.08h7.07v3.17Z"/>
    <path class="cls-3" d="M512.29,92.53h3.14c.32,1.11.31,2.79,2,2.93a30.93,30.93,0,0,0,5.61-.1,1.76,1.76,0,0,0,1-1.45,2.36,2.36,0,0,0-1.25-1.62c-1.42-.48-3-.63-4.43-1a16.49,16.49,0,0,1-3.53-1,4.42,4.42,0,0,1-.89-7.55c2.76-2.38,8.76-2.38,11.47,0,1.29,1.13,1.69,2.21,1.67,4.78l-2.74.15c-.68-1.18-.53-3-2.19-3.14a28.26,28.26,0,0,0-5.36.1c-.41,0-1,1-1,1.47a2,2,0,0,0,1,1.5,16,16,0,0,0,3,.76c1.57.37,3.18.61,4.69,1.13a4.25,4.25,0,0,1,3.08,4,4.55,4.55,0,0,1-2.88,4.52,10.76,10.76,0,0,1-9.38-.09C513.11,97,512.16,95.09,512.29,92.53Z"/>
    <path class="cls-2" d="M296.28,98.68V81.42c3.3,0,6.51-.25,9.66.06,4.47.45,7.12,4,7,8.84-.1,4.56-3,8-7.33,8.31C302.62,98.87,299.58,98.68,296.28,98.68Zm3.46-14.23V95.58c1.93,0,3.72.14,5.49,0,2.67-.26,3.86-1.53,4.12-4.21a12.53,12.53,0,0,0-.07-3.12c-.35-2.36-1.56-3.55-3.94-3.74C303.56,84.33,301.76,84.45,299.74,84.45Z"/>
    <path class="cls-2" d="M292.73,91.46h-9.94v4.16h10.4v3H279.28V81.38h13.89v2.94h-10.4v4h10Z"/>
    <path class="cls-3" d="M261,98.65V81.31c3.34,0,6.56-.13,9.77,0s5.06,1.68,5.55,4c.58,2.76-.34,4.34-3.56,6.06,1.36,2.32,2.72,4.64,4.23,7.2H273a38.19,38.19,0,0,1-2-3.45c-1-2.18-2.57-3.2-5-2.86-.47.06-1,0-1.71.09v6.25Zm3.43-9.22c2.3,0,4.28.1,6.24,0A2.08,2.08,0,0,0,272.9,87c0-1.63-.6-2.47-2.31-2.57-2-.12-4.08,0-6.16,0Z"/>
    <path class="cls-3" d="M207.89,98.58V81.37c3.53,0,6.93-.16,10.31,0,2.91.18,4.67,1.84,5,4.18.43,2.63-.37,4-3.24,5.6a1.57,1.57,0,0,0-.32.3l4.19,7.08h-3.94a20.51,20.51,0,0,1-1.64-2.79c-1.3-3.19-3.6-4.13-7-3.23v6Zm3.4-9.19c2.4,0,4.47.12,6.52,0,1.5-.12,2-1,2-2.59a2.05,2.05,0,0,0-2-2.27c-2.13-.11-4.27,0-6.58,0,0,1.21,0,2.13,0,3.06C211.2,88.07,211.25,88.62,211.29,89.39Z"/>
    <path class="cls-3" d="M376.2,88.56h-3.49c0-2.52-1.16-4.06-3.71-4.18-2.12-.11-4.37-.21-5.62,1.88a7.33,7.33,0,0,0-.2,7.12c1.15,2.35,3.46,2.43,5.69,2.26s3.05-.86,3.74-3.17l.28-.93h3.17c.65,2.51-.52,4.36-2.41,5.81a10.08,10.08,0,0,1-11.93-.51A9.81,9.81,0,0,1,360,85.3c3.38-5.9,11.4-5,14.37-2C375.73,84.65,376.14,85.71,376.2,88.56Z"/>
    <path class="cls-3" d="M353.53,91.5h3.2a5.84,5.84,0,0,1-3.08,6.23,10.15,10.15,0,0,1-11-.62A9.44,9.44,0,0,1,340,86.74c2.56-7.36,12-6.87,15.29-3.12a5.31,5.31,0,0,1,1.45,4.8h-3.13c-.41-.94-.61-2.19-1.33-2.92-1.66-1.67-3.87-1.32-5.92-.91A3.76,3.76,0,0,0,343.28,88a13.14,13.14,0,0,0,0,4c.37,2.47,2,3.66,4.91,3.78,2.39.11,5-.62,5.07-3.35A3.18,3.18,0,0,1,353.53,91.5Z"/>
    <path class="cls-3" d="M378.34,89.94c0-5.39,3.78-9,9.22-9a8.64,8.64,0,0,1,9,9.25c-.11,5.25-3.79,8.83-9.1,8.84A8.64,8.64,0,0,1,378.34,89.94Zm14.53.08c0-4-1.55-5.65-5.37-5.68-4,0-5.6,1.68-5.58,5.78,0,3.88,1.75,5.62,5.54,5.59S392.87,94,392.87,90Z"/>
    <path class="cls-3" d="M167.51,88.43h-3.06c-.75-1.2-1.2-2.83-2.22-3.35a8.72,8.72,0,0,0-4.67-.58c-2.73.29-4.05,2.56-3.85,6s1.65,4.91,4.86,5.17c3.37.27,4.73-.7,5.46-4.09h3.2a5.74,5.74,0,0,1-3.16,6.31,10.24,10.24,0,0,1-11-1,9.43,9.43,0,0,1-2.33-10.47C153.6,79.21,162.87,80,166,83.63A6.43,6.43,0,0,1,167.51,88.43Z"/>
    <path class="cls-3" d="M457.69,98.71h-3.76l7.66-17.3H466c2.49,5.56,5,11.24,7.68,17.18h-3.78l-2-4.16c-2.33,0-4.78-.08-7.22,0a2.66,2.66,0,0,0-1.62,1.23A21.65,21.65,0,0,0,457.69,98.71Zm6.14-13.77-2.73,6.18h5.37C465.58,89,464.78,87.15,463.83,84.94Z"/>
    <path class="cls-3" d="M324.61,94.42l-2,4.23h-3.73l7.67-17.28H331c2.52,5.68,5,11.35,7.68,17.26h-3.6c-.12-.1-.36-.2-.39-.35-.74-3.2-2.69-4.45-6-3.89A26.52,26.52,0,0,1,324.61,94.42Zm6.8-3.29-2.67-6.23c-1,2.32-1.79,4.18-2.68,6.23Z"/>
    <path class="cls-3" d="M411.13,81.4h3.36c0,3.87.07,7.65-.05,11.43a6.44,6.44,0,0,1-1,2.91c-1.63,2.73-5.32,3.86-9.43,3-3.25-.66-5.38-2.57-5.64-5.91-.3-3.74-.07-7.53-.07-11.47h3.24c0,3,.08,6,0,8.9-.16,4.23,1.44,5.86,6.26,5.3,2.35-.28,3.27-1.39,3.36-3.83s0-4.94,0-7.41Z"/>
    <path class="cls-3" d="M436.43,84.5V81.39h16.38v3h-6.23V98.52c-.77.11-1.31.22-1.85.25s-.93,0-1.65-.08V84.5Z"/>
    <path class="cls-3" d="M231.72,84.34h-6.53v-3h16.25v3.07h-6.21V98.56c-.68.09-1.13.2-1.6.21s-1.11-.06-1.91-.1Z"/>
    <path class="cls-3" d="M500.16,84.36h-6.53v-3h16.23v3h-6.19v14.1a11.91,11.91,0,0,1-1.31.25c-.65,0-1.3,0-2.2,0Z"/>
    <path class="cls-4" d="M151.74,53.69v-7c4.72,0,9.33-.1,13.93,0,2.07.07,2.89,1.28,2.89,3.45s-.76,3.41-2.85,3.48C161.1,53.8,156.48,53.69,151.74,53.69Z"/>
    <path class="cls-4" d="M151.77,40.23v-6.5c4.29,0,8.46-.12,12.62,0,2,.08,2.85,1.27,2.86,3.22s-.78,3.11-2.84,3.19C160.25,40.34,156.08,40.23,151.77,40.23Z"/>
    <path class="cls-4" d="M416.69,43.39c.15-7,2.82-9.71,9.73-9.75a24.86,24.86,0,0,1,4.79.48,6.34,6.34,0,0,1,5.48,5.76,31.84,31.84,0,0,1,0,7.62,6.4,6.4,0,0,1-5.93,6,30.31,30.31,0,0,1-7.06.1c-4-.4-5.9-2.3-6.65-6.23C416.82,46.05,416.81,44.71,416.69,43.39Z"/>
    <path class="cls-4" d="M316.77,46.23H306c1.79-4.28,3.48-8.35,5.38-12.91C313.26,37.82,314.93,41.82,316.77,46.23Z"/>
    <path class="cls-4" d="M194.18,91.05c.84-2,1.63-3.86,2.6-6.15,1,2.18,1.77,4,2.7,6.15Z"/>
    <path class="cls-4" d="M299.74,84.45c2,0,3.82-.12,5.6,0,2.38.19,3.59,1.38,3.94,3.74a12.53,12.53,0,0,0,.07,3.12c-.26,2.68-1.45,4-4.12,4.21-1.77.17-3.56,0-5.49,0Z"/>
    <path class="cls-4" d="M264.43,89.43v-5c2.08,0,4.13-.09,6.16,0,1.71.1,2.35.94,2.31,2.57a2.08,2.08,0,0,0-2.23,2.36C268.71,89.53,266.73,89.43,264.43,89.43Z"/>
    <path class="cls-4" d="M211.29,89.39c0-.77-.09-1.32-.1-1.87,0-.93,0-1.85,0-3.06,2.31,0,4.45-.08,6.58,0a2.05,2.05,0,0,0,2,2.27c0,1.55-.47,2.47-2,2.59C215.76,89.51,213.69,89.39,211.29,89.39Z"/>
    <path class="cls-4" d="M392.87,90c0,3.94-1.64,5.67-5.41,5.69S382,94,381.92,90.12c0-4.1,1.61-5.8,5.58-5.78C391.32,84.37,392.87,86,392.87,90Z"/>
    <path class="cls-4" d="M463.83,84.94c.95,2.21,1.75,4.1,2.64,6.18H461.1Z"/>
    <path class="cls-4" d="M331.41,91.13h-5.35c.89-2,1.68-3.91,2.68-6.23Z"/>
  </g>
</svg>
